<svg width="100" height="100" viewBox="0 0 100 100" xmlns="http://www.w3.org/2000/svg">
  <circle cx="50" cy="50" r="48" fill="white"/>
  <g fill="#0F62D5">
    <circle cx="50" cy="50" r="5"/>
    <circle cx="50" cy="30" r="4"/>
    <circle cx="50" cy="70" r="4"/>
    <circle cx="30" cy="50" r="4"/>
    <circle cx="70" cy="50" r="4"/>
    <circle cx="35" cy="35" r="3.5"/>
    <circle cx="65" cy="65" r="3.5"/>
    <circle cx="35" cy="65" r="3.5"/>
    <circle cx="65" cy="35" r="3.5"/>
    <path d="M50 30 L50 70 M30 50 L70 50 M35 35 L65 65 M35 65 L65 35" stroke="#0F62D5" stroke-width="2" opacity="0.6"/>
    <circle cx="50" cy="15" r="2.5"/>
    <circle cx="50" cy="85" r="2.5"/>
    <circle cx="15" cy="50" r="2.5"/>
    <circle cx="85" cy="50" r="2.5"/>
  </g>
</svg>
